<?xml version="1.0" encoding="UTF-8" standalone="no"?>
<svg xmlns:rdf="http://www.w3.org/1999/02/22-rdf-syntax-ns#" xmlns="http://www.w3.org/2000/svg" height="1232pt" width="899pt" version="1.1" xmlns:cc="http://creativecommons.org/ns#" xmlns:dc="http://purl.org/dc/elements/1.1/" viewBox="0 0 899 1232">
<path d="m164.94 0c-7.31 2.74-17.941 1.7506-18.861 12.091-6.78 2.41-13.51 8.32-13.95 15.7 6.25 5.94 12.871 11.919 21.641 15.439 7.35 5.74 5.2103 18.401 8.0203 26.661-4.78 8.6-8.3713-11.501-15.581-4.8312-4.47 6.79-0.54968 17.631 5.1703 22.811 9.56 2.21 2.8206-15.301 12.041-11.341 1.93 10.02 5.1797 19.88 5.4297 30.15-5.29 2.98-9.3794-0.37031-12.359-4.5203-10.9-0.64-6.3009 18.031 0.0392 21.661 10.33 1.66 1.3997-17.22 13.98-12.43 21.01 96.19 40.2 193.06 62.35 288.86-0.31 0.21-0.92904 0.64-1.239 0.85-128.55 56.65-219.03 188.63-226.73 328.76-2.33 19.9-1.9206 40.051-4.8906 59.861v52.589c2.75 95.86 36.609 191.59 101.71 262.97 65.44 73.08 159.45 121.52 257.92 126.72h47.791c65.13-5.23 132.17-9.8203 192.71-36.82 1.99-0.95 4.13-1.0894 5.75 0.6406 6.41 9.83 21.73 15.229 19.3 29.009-2.12 8.97 10.68 4.0706 15.17 4.4906 0.95-4.89-0.72032-10.77 3.3297-14.58 17.49-19.87 35.08-39.681 52.73-59.431 2.05-2.95 5.651 0.5806 7.461 1.7406 30.67 22.33 61.43 44.51 92.17 66.75 8.38 8.67 20.849 3.2403 31.259 3.9203-40.42-31.6-82.95-60.6-124.42-90.9 49.81-40.8 92.59-91.261 120.48-149.74 1.26-2.65 2.5506-5.279 3.8406-7.889 22.67-49.14 37.061-102.54 39.491-156.69 5.46-2.04 10.71 7.77 17.68 5.1 13.51-4.62 13.19-22.299 14.63-33.959v-16.18c-5.73-50.84-18.65-100.98-36.58-148.85-8.11-16.65-14.4-35.98-30.2-47-1.74-1.0375-3.4265-1.4731-5.0234-1.4469-4.7911 0.0788-8.7738 4.3141-10.956 8.9266-2.08-3.79-4.2303-7.52-6.1203-11.4 14.77 2.03 7.3703-13.59 5.2203-21.62-5.98-0.29-11.941 0.33-17.891-0.1-10.46-39.68-19.92-79.83-28.17-120 5.56-2.58 13.691 0.13031 20.041-0.57969-0.94-7.21-1.8503-14.7-4.9703-21.35-6.89-0.25-13.81 0.33907-20.65-0.41093-9.34-41.09-19.969-82.03-28.509-123.25 6.48 0.28 12.969 0.37 19.439-0.4-0.42-7.14-1.5497-14.389-4.3297-21.009-6.67-1.57-13.821 0.97938-20.591-0.44062-2.47-6.12-2.0587-13.01-4.4687-19.15-4.4875-0.35625-8.999-0.55588-13.502-0.53125-2.7016 0.0148-5.4002 0.11031-8.089 0.30156-0.52 6.1 3.3594 12.62 3.2094 19-6.71 0.04-13.37-0.16031-20.05-0.37031-7.73-0.1-15.49 0.81-23.18 0-0.16592-0.27068-0.31696-0.55572-0.46096-0.84688-0.00056-0.0183 0-0.0364 0-0.0547h-0.0216c-0.3708-0.75887-0.66608-1.5887-0.92192-2.4516-0.00056-0.002 0-0.004 0-0.006-0.0496-0.16771-0.10056-0.33412-0.14688-0.50469-0.0004-0.002 0-0.003 0-0.005-0.12848-0.47366-0.24696-0.9547-0.35464-1.4453 0-0.007 0-0.0146-0.008-0.0218-0.072-0.33047-0.13912-0.66471-0.20464-1 0-0.009 0-0.0178-0.008-0.0266-0.36472-1.8703-0.65176-3.7868-1.0266-5.5734-0.02-0.0945-0.0392-0.1886-0.0592-0.28282-0.0827-0.37978-0.1728-0.75006-0.2672-1.1141-0.0344-0.13064-0.0696-0.25996-0.10472-0.38906-0.0136-0.0487-0.0256-0.0989-0.0392-0.14688-0.0805-0.28113-0.17144-0.54934-0.26248-0.81718-0.0448-0.13246-0.092-0.26236-0.13752-0.39376-0.0712-0.19159-0.13888-0.38732-0.2172-0.57031-0.0248-0.0583-0.0504-0.11604-0.0768-0.17344-0.0688-0.1538-0.13936-0.30473-0.21408-0.45156-0.0176-0.0348-0.036-0.0689-0.0544-0.10313-0.008-0.013-0.0136-0.0262-0.02-0.039-0.0744-0.1395-0.1512-0.27539-0.23128-0.4078-0.032-0.0536-0.0656-0.10698-0.0984-0.15938-0.081-0.12689-0.16592-0.24925-0.25312-0.36875-0.036-0.049-0.0704-0.0991-0.10784-0.14687-0.0864-0.11183-0.1776-0.2174-0.27032-0.32188-0.0448-0.0509-0.0889-0.10246-0.13592-0.15156-0.0853-0.0896-0.17504-0.1744-0.2656-0.25781-0.0544-0.0502-0.10968-0.10013-0.16568-0.14844-0.008-0.006-0.0144-0.0139-0.0216-0.0203-0.0872-0.073-0.17976-0.14046-0.27184-0.20782-0.0168-0.0121-0.0336-0.0237-0.0496-0.0359-0.15344-0.10937-0.31376-0.20997-0.48128-0.30313-0.0704-0.0392-0.13792-0.081-0.21096-0.11718-0.12096-0.0599-0.24976-0.11254-0.37808-0.16406-0.068-0.0273-0.13312-0.0579-0.20312-0.0828-0.12224-0.0434-0.2524-0.0767-0.38128-0.11251-0.0144-0.004-0.028-0.008-0.0424-0.0125-0.0776-0.0224-0.15344-0.0457-0.2344-0.0641-0.11208-0.0254-0.23304-0.0412-0.35-0.061-0.048-0.008-0.0964-0.0162-0.14376-0.025-0.30176-0.0442-0.6132-0.0765-0.9484-0.0828-1.2268-0.0231-2.6857 0.21375-4.4282 0.76875 0.42912 5.9688 2.263 11.777 2.4469 17.794 0 0.15245 0.0216 0.30352 0.0232 0.45625-64.68 0.76-129.67-1.9194-194.19 1.0906-8.49-4.87-1.329-23.249-15.489-19.159-2.98 5.03 4.0894 12.819 2.4594 19.159-15.41-1.08-30.781 1.4394-46.141 0.75938-2.5-6.48-3.4694-13.429-5.8594-19.919-3.6859-0.51405-7.4797-1.0467-11.247-1.1062-0.53808-0.009-1.0758-0.008-1.6125 0.005-2.5761 0.0588-5.1303 0.37407-7.6203 1.1016 0.95 6.83 4.42 13.159 4.6 20.119-6.09 0.09-12.181-0.42937-18.261-0.10937 0.67 7.71 3.6613 15.071 5.3813 22.591 7.39 2.19 22.049-4.77 22.289 7.4 4.93 21.87 14.131 43.48 14.811 65.88-42.71 1.29-86.28 5.2103-126.62 20.07-1.12 0.03-2.241 0.0697-3.361 0.12969 1.12-0.75 2.5703-1.4709 1.6703-3.0109-27.42-96.26-54.74-192.58-81.5-288.99 5.38-5.22 10.25 0.25969 13.55 4.4297 13.95 1.56 4.4806-28.411-5.5094-19.441 1.64 6.42-3.681 10.86-9.611 9.3703-1.92-8.47-13.14-31.099 4.6-23.909 10.05 17.19 13.161-18.441 0.36096-16.091-2.95 6.12-2.59 14.82-13.05 12.07-2.05-6.65-3.8506-13.39-5.1906-20.23 15.01-1.22 9.63-18.37 14.57-28.03-9.36-0.37-17.91-5.17-25.03-11.3zm534.56 289.74c4.3774 0.0562 10.224 1.9084 13.341 1.4641 10.15 40.78 20.9 81.5 29.85 122.57-6.48 0.03-12.96-0.56031-19.4-0.97031-10.48-39.14-19.121-78.789-29.361-118.01-0.35-4.0556 2.1657-5.0984 5.5703-5.0547zm-272.98 2.0047c8.59 22.37 10.9 46.77 18.57 69.5-5.81 4.24-15.611 1.2191-22.811 2.4391-5.64-23.89-13.259-47.64-17.689-71.67 7.3-0.26 14.61-0.0988 21.93-0.26876zm309.32 142.54c4.3232 0.009 9.4306 1.4062 12.012 1.4906 7.54 25.48 13.16 51.65 19.75 77.45 0.79 1.41-0.45032 2.0391-1.4203 2.7891-7.97-8.09-13.649-18.48-23.289-24.83-0.71-1.38-1.4106-2.7503-2.0906-4.1203-3.24-16.52-7.9103-32.709-12.07-49.009 0.85752-2.9444 3.7454-3.7772 7.1078-3.7703zm85.095 549.98c0.13648 0.008 0.26768 0.0336 0.39688 0.0704-0.12904-0.0368-0.26056-0.0632-0.39688-0.0688-0.1224-0.008-0.24768 0.008-0.37496 0.028 0.12736-0.0224 0.25256-0.0352 0.37496-0.0296zm-141.16 168.94c-10.9 14.98-24.93 28.401-37.38 42.491-4.6-2.56-0.02-13.481-1.5297-18.791 12.81-8.03 25.939-15.81 38.909-23.7zm-56.37 32.161c4.65 0.43 1.9606 17.45-3.2594 7.5297-5.32-3.71-1.6806-7.0197 3.2594-7.5297z" fill="#551c01"/>
<path d="m206.18 0c-9.14 3.425-22.43 2.1883-23.58 15.113-8.48 3.013-16.89 10.4-17.44 19.625 7.81 7.425 16.09 14.899 27.05 19.299 9.7 1.5 19.58 0.126 28.14-4.887 18.76-1.512 12.04-22.95 18.21-35.025-11.7-0.463-22.38-6.4625-31.28-14.125h-1.1zm611.98 310.18c0.15 0.01 0.29 0.04 0.43 0.07-0.14-0.03-0.28-0.06-0.43-0.07zm0.87 0.14c0.12 0.03 0.23 0.07 0.34 0.1-0.11-0.03-0.23-0.07-0.34-0.1zm0.82 0.24c0.09 0.03 0.17 0.07 0.25 0.1-0.08-0.03-0.16-0.07-0.25-0.1zm0.72 0.31c0.1 0.04 0.18 0.1 0.27 0.15-0.09-0.05-0.17-0.11-0.27-0.15zm0.67 0.38c0.09 0.06 0.17 0.13 0.26 0.19-0.09-0.06-0.17-0.13-0.26-0.19zm0.6 0.45l0.24 0.21-0.24-0.21zm0.57 0.53c0.06 0.06 0.11 0.13 0.17 0.19-0.06-0.06-0.11-0.13-0.17-0.19zm0.51 0.59c0.04 0.06 0.09 0.13 0.13 0.19-0.04-0.06-0.09-0.13-0.13-0.19zm0.45 0.65c0.04 0.06 0.08 0.13 0.12 0.2-0.04-0.07-0.08-0.14-0.12-0.2zm0.41 0.71l0.09 0.18-0.09-0.18zm0.36 0.74c0.03 0.07 0.07 0.14 0.1 0.22-0.03-0.08-0.07-0.15-0.1-0.22zm0.26 0.62c0.1 0.26 0.19 0.53 0.28 0.8-0.09-0.27-0.18-0.54-0.28-0.8zm0.61 1.82c0.06 0.22 0.12 0.45 0.18 0.67-0.06-0.22-0.12-0.45-0.18-0.67zm0.47 1.86c0.04 0.19 0.08 0.37 0.12 0.56-0.04-0.19-0.08-0.37-0.12-0.56zm1.02 5.41c0.12 0.72 0.25 1.44 0.38 2.15-0.13-0.71-0.26-1.43-0.38-2.15zm0.64 3.4c0.04 0.18 0.08 0.36 0.13 0.54-0.05-0.18-0.09-0.36-0.13-0.54zm0.45 1.83c0.06 0.22 0.12 0.43 0.19 0.65-0.07-0.22-0.13-0.43-0.19-0.65zm0.57 1.83c0.07 0.2 0.15 0.39 0.22 0.59-0.07-0.2-0.15-0.39-0.22-0.59zm-13.41 1.63c0 0.19 0.02 0.38 0.03 0.57-80.85 0.95-162.09-2.4-242.74 1.36-4.03 8.81 9.19 23.31-0.95 28.14-12.28-1.6-6.78-20.2-14.56-25.75-7.53 9.07-19.19 15.71-23.38 27.04 10.74 27.96 13.63 58.46 23.21 86.87 4.15 0.29 8.46 0.36 12.21 2.4 133.05 5.67 261.67 62.79 357.43 154.87-4.05-20.65-9.89-40.88-15.09-61.26-2.19-10.54-3.18-21.36-6.8-31.56-13.1-48.92-23.9-98.49-36.7-147.51-4.14-10.51-0.46-25.42-8.9-33.79-9.66-0.13-19.36 1.01-28.97 0-0.21-0.34-0.4-0.7-0.58-1.06 0.24 7.5 2.52 14.74 3.06 22.17-2.18 0.7-4.01 0.99-5.54 0.97-10.26-0.2-7.57-15-11.71-23.46h-0.02zm-313.57 122.83c-53.39 1.61-107.85 6.51-158.28 25.09 1.39 4.26 2.89 8.47 4.48 12.67 0.88 1.63 1.83 3.24 2.93 4.74 50.09-17.52 103.63-22.44 156.35-22.77 3.68-5.93 1.42-17.37-5.48-19.73zm-155.03 43.39c-16.51 5.73-33.13 11.6-48.76 19.47-0.34 1.91-0.64 3.84-0.86 5.79 26.91 124.39 51.44 249.36 78.36 373.76 25.46-6.77 51.17-12.71 76.61-19.52 4.85-0.54 3.21-5.84 2.38-9.01-32.94-118.53-66.62-236.88-100.12-355.24-1.9-5.13-1.51-12.88-7.61-15.25zm-56.62 1.84c-160.69 70.81-273.79 235.78-283.42 410.94-2.9092 24.88-2.3975 50.07-6.11 74.83v65.75c3.4375 119.8 45.762 239.5 127.14 328.7 81.8 91.3 199.31 151.9 322.4 158.4h59.74c81.41-6.5 165.21-12.3 240.88-46 3.94-13.9-20.02-23-27.72-32.5-25.66 12-50.9 25.3-77.7 34.6-24.38 6.2-48.48 16-73.92 16.4-23.18-62.1-1.09-132.6-26.27-194.8-19.27 4.3-38.65 9-57.75 14.2 3.25 54.3 43.41 95.9 60.89 145.3-30.78-29.3-72.12-43.6-112.55-53.6-26.04-6-68.62-12.3-81.17 18.1 3.87 40.5 48.85 57.4 80.15 74.4-10.97-1.8-21.94-3.7-32.87-5.9-170.95-30.1-315.02-168.6-360.16-335.1-19.402-95-21.164-193.94-11.477-290.46 17.138-155.43 120.8-296.5 261.28-363.69 1.65-0.59 2.24-2.3 3.01-3.69-0.96-5.42-1.49-11.07-4.37-15.88zm249.09 86.22c7.46 36.09 20.31 71.15 26.03 107.46-6.85 1.4-18.39-2.61-23.19 1.19 3.14 7.75-0.65 27.2 12.13 24.87 27.37-2.7 54.5 2.34 81.87-0.38 7.17 0.37 14.36 0.21 21.55 0.57 82.78 1.08 165.78-1.08 248.65-0.45-1.21-11.91-14.06-27.64-28.25-23.41-64.66-0.56-129.38 1.34-193.98-0.94-22.39-0.26-44.77-0.27-67.12-1.46-7.25-3.25-22.59 4.83-25.56-6.09-3.01-16.11-9.12-31.32-15.41-46.34-8.18-20.51-21.15-39.6-36.72-55.02zm389.99 26.37c4.99 25.02 11.44 49.74 16.27 74.81-0.18 13.33 20.53 11.97 26.68 4.69-2.78-11.35-5.67-22.7-7.37-34.25 0.25-5.75-1.88-10.88-6.47-14.21-9.96-10.11-17.06-23.1-29.11-31.04zm27.83 105.08c-5.69-0.07-11.3 0.61-16.29 3.61-7.04 4.06-13.24 9.35-19.11 14.94 8.22 23.87 17.77 47.44 21.06 72.76 0.02 2.09 2.2 15.88 5.7 8.64 8.88-31.16 18.21-62.32 25.79-93.88 1.36-2.83-2.23-3.97-4-5.3-4.25-0.21-8.72-0.72-13.15-0.77zm49.96 0.77c-5 1.72-14.2-0.68-15.25 6.44-9.79 30.63-17.62 61.92-25.56 93.1-0.94 2.33 0.62 4.29 1.96 6.04 21.99-17.71 34.75-43.38 47.75-67.83 2.5-6.75 10-13.94 5-21.23-2.6-4.74-5.3-9.4-7.6-14.25-1.8-1.55-4.1-2.09-6.3-2.27zm-44.19 260.76c-3.88 0.17-5.29 2.76-4.24 7.76 2.5 21.56 3.7 43.16 3.63 64.86 8.5 0 13.24-11.9 19.78-16.8 11.17-15.6 30.42-26.7 36.42-45.01-17-5.47-34.95-7.39-52.51-10.55-1.16-0.22-2.19-0.3-3.08-0.26zm82.79 17.88c-22.6 14.14-36.6 40.44-56.59 58.64-7.84 5.8-2.43 16.5-0.8 24 13.59 46.7 26.79 93.6 40.99 140.2 0.3 3.1 2.8 3.8 5.4 2.7 28.3-61.5 46.3-128.2 49.4-195.9-1.7-3.1-3.3-6.2-4.7-9.4-5.6-13.1-21.8-15.3-33.7-20.24zm-249.97 16.24c-3.1 0.6-6.13 1.4-9.12 2.4-5.89 28.1-6.2 69 0.58 96.3 25.65-3.7 6.8-39.9 12.04-58.2-3.63-13 3.13-29-3.5-40.5zm167.26 51.1c-1.69 90.6-35.9 176.9-81.03 254 44.01-26.1 82.19-62.6 125.14-91.1 5.8-9.7-3.5-20.8-4.2-30.9-13.95-43.6-22.75-89.9-39.91-132zm63.91 164.5c-0.7 0-1.4 0.3-2.2 1-43.9 35.2-90.04 67.5-134.06 102.4-11.76 22.9-18.45 48.2-30.06 71.1-4.37-1.8-10.9-4.2-10.95-9.8 6.62-21.8 19.26-42.1 23.67-64.4-16.29 14.2-31.04 34.3-45.78 51.3 1.77 10.8 27.43 16 11.48 30-9.37-2.4-16.11-12.1-25.6-15.3-14.24 5.9-12.34 22.8-11.13 35.3 13.04-1.3 31.69-0.8 38.36-12.9 11.4 1.5 11.99 14.2 4.76 21-13.18 2.8-26.53 5.2-39.85 7.1-9.78 1.5 3.37-19.7-9.56-14-3.93-0.2-8.41 1.6-11.83-0.4-1.05-16.2-15.27-1.5-20.83 4.1 0.99 8.1 14.89-2.9 18.62 4.9 3 21.1-29.34 6.7-34.99 19.5 5.09 9.8 15.63 16.3 22.78 24.9-4.05 2.5-10.97 2.9-11.68 8.7 8.01 12.3 27.16 19 24.12 36.2-2.65 11.2 13.35 5.1 18.97 5.7 1.18-6.2-0.9-13.5 4.16-18.3 21.86-24.8 43.85-49.6 65.91-74.3 2.56-3.7 7.07 0.8 9.33 2.2 38.34 27.9 76.79 55.7 115.21 83.5 10.45 10.8 26.05 4 39.05 4.9-50.5-39.6-103.66-75.8-155.5-113.7 62.26-51 115.74-114.1 150.6-187.2-0.4-1.8-1.5-3.4-3-3.5zm-176.48 211.2c-13.62 18.7-31.16 35.5-46.72 53.1-5.75-3.2-0.02-16.9-1.91-23.5 16.01-10 32.42-19.8 48.63-29.6zm-70.46 40.2c5.81 0.5 2.45 21.8-4.07 9.4-6.65-4.6-2.1-8.8 4.07-9.4zm-225.16 16.3c3.24 3.1 9.29 20.4-2.45 16.7-17.92 1.1 0.75-8.3 2.45-16.7z" transform="scale(.8)"/>
<path d="m560.69 453.69c-0.88 0.01-1.75 0.03-2.63 0.07 0.23 20.9 7.85 40.93 11.53 61.13-6.89 2.25-17.79 4.25-25.58 0.95-3.4-10.71-4.85-21.98-8.04-32.75-2.47-12.39-19.27-4.83-28.11-5.52 1.28 13.62 7.43 26.33 9.33 39.79-5.19 4.97-26.48-7.42-22.53 6.61 3.96 9.7 2.23 28.69 19.19 22.17 18.85-4.15 14.14 22.82 19.97 33.7-45.3-46.98-110.76-75.61-176.47-69.98-3.35-0.38-3.84 2.19-3.59 4.93 33.5 118.36 67.18 236.71 100.12 355.24 0.83 3.17 2.47 8.47-2.38 9.01-25.44 6.81-51.15 12.75-76.61 19.52-26.92-124.4-51.45-249.37-78.36-373.76-42.04 10.5-77.22 43.44-102.78 77.71-51.46 73.23-52.14 178.62 1.76 250.73 17.91 22.2 29.4 49.48 32.55 77.83 13.88-20.82 41.71-7.58 49.35 11.53 16.58 36.65 20.23 80.1 9.12 118.8 25-5 49.46-12.5 74.43-17.7 5.77-27.3-9.16-66.65 15.26-88.9 6.29-6.31 25.63 2 15.73 9.95-10.84 4-2-15.56-11.14-7.63-10.49 25.87-5.23 55.28-7.45 82.58 45.53-10.2 91.88-21.9 136.29-33.8-10.85-24.1-15.11-56.49-38.33-71.79 3.55 8.4-9.08 13.94-10.22 4.7 2.91-12.02 21.02-11.19 26.81-1.59 15.2 19.64 20.45 44.83 32.52 66.38 25.75-7.94 53.87-11.85 78.39-20.9-27.83-24.18-37.66-62.02-43.89-96.7-5.13-25.3 12.81-56.39 41.26-48.88-29.9-33.44-1.7-76.96-6.5-115.34-11.97-1.43-24.09-0.36-36.1-0.66-12.78 2.33-8.99-17.12-12.13-24.87 4.8-3.8 16.34 0.21 23.19-1.19-5.72-36.31-18.57-71.37-26.03-107.46 15.57 15.42 28.54 34.51 36.72 55.02-2.88-32.73-16.28-64.1-22.91-96.3 7.77-2.65 16.2-1.32 24.25-1.37 13.68 49.87 25.23 100.39 39.63 150.1 22.35 1.19 44.73 1.2 67.12 1.46 87.1-0.61 174.23 0.49 261.29-2.04 0.19-1.9 0.22-3.79 0.16-5.69-4.83-25.07-11.28-49.79-16.27-74.81-0.88-1.72-1.76-3.43-2.61-5.15-95.76-92.08-224.38-149.2-357.43-154.87-2.66-0.17-5.26-0.28-7.88-0.26zm-217.79 27.55c-1.4 0.04-2.8 0.09-4.2 0.16-16.84 3.28-33 10-47.63 18.91-0.38 0.27-1.16 0.8-1.54 1.07 2.88 4.81 3.41 10.46 4.37 15.88 1.16 0.59 2.32 1.16 3.49 1.75 15.63-7.87 32.25-13.74 48.76-19.47 0.44-1.88 0.87-3.75 1.23-5.63-1.59-4.2-3.09-8.41-4.48-12.67zm621.29 177.98c1.7 11.55 4.59 22.9 7.37 34.25 10.86 4.08-4.56 18.49-1.97 26.35 12.25 0.38 24.51 0.29 36.81 0-10.35-22.41-25.89-42.25-42.21-60.6zm-32.37 59.64c-7.04 0.16-16.67 2.85-21.73 1.78-35.69 30.08-73.37 58.31-110.59 86.66-6.61-25.54 0.96-57.7-2.45-85.65-5.95-0.27-12.11-1.45-17.93 0.24-0.62 27.97 1.42 59.36-1.47 85.45-41.37-26.19-81.11-56.63-120.64-86.03-7.19-0.36-14.38-0.2-21.55-0.57-3.33 0.3-9.74-1.36-8.95 3.66 50.68 36.94 102.01 73.14 151.87 111.15 2.78 30.73 3.11 63.49 0.3 93.92-55.37 26.85-115.99 41.18-175.8 54.49 2.33 8.05 13.91 10.27 19.74 16.24-29.68 8.4-59.78 15.6-89.9 22.5-5.6 1.5-0.26 7.9 0.81 11.3 5.5 9.7 7.59 26.1 20.94 27.8-1.57-4-5.31-9-1.25-12.9 12.78-4.2 9.04 15.4-0.32 15.8-20.37 0.3-25.12-23.9-33.16-38.1-44.71 10.1-89.09 22-133.45 33.6 3.16 17.7 7.93 35.1 12.77 52.3 97.14-22.6 193.44-49.1 290.66-71.4-5.8-16.1-15.03-32.5-9.21-50.35 32.43-7.8 65.61-15.3 99.15-14.25 4.38 10.58-5.79 37 6.25 40.6 2.99-1 6.02-1.8 9.12-2.4 0.93-14.3 11.97-47.91-13.64-39.05 5.82-16.6-11.92-51.96 16.46-52.96-0.23 16.83-0.74 33.7-0.21 50.55 55.75-4.95 112.78-4.4 167.65 7.6 17.56 3.16 35.51 5.08 52.51 10.55 9.3 1.52 18.3 4.1 27.2 7.07 11.9 4.94 28.1 7.14 33.7 20.24 8 9.1 25.5 8.7 32.5-1.7 7.5-19.05 3.5-40.28-1.3-59.5-9.4-35.14-16.8-71.39-33.3-104.06-5.7-10.43-16.5-25.19-29.8-20.99-18.8 19-8.9 49.59-11.3 72.4-15.3-47.51-15.7-98.93-20.2-147.28-13 24.45-25.76 50.12-47.75 67.83-49.75 42.85-109.93 71.05-170.23 95.72 0.3-26.07 0.06-52.13 0.17-78.18-2.45-5.96 3.29-8.62 6.7-11.56 39.56-30.5 77.63-62.88 116.85-93.78 5.87-5.59 12.07-10.88 19.11-14.94-0.81-3.09-4.1-3.9-8.33-3.8zm84.28 140.28c6.4 45.28 21.7 88.73 38.7 130.96-66.29-38.76-148.04-35.44-222.36-37.49-1.05-0.57-17.82 1.44-10.8-2.11 69.66-16.41 135.54-48.21 192.56-91.34 0.5 0 1.4-0.01 1.9-0.02zm-98.84 128.02c-3.27-0.1-6.6 0.23-9.95 1.04-36.07 8.65-72.4 16.7-108.17 26.4-0.72 13.5-0.45 27.1-0.61 40.6-5.24 18.3 13.61 54.5-12.04 58.2-1.91 0.2-3.84 0.3-5.73 0.1 1.04-31.5 0-63 0.86-94.4-29.46 6.9-59.07 13.7-88.24 21.6-2.2 6.3 7.99 9.5 9.32 15.6-31.26 7.5-62.44 15.4-93.69 22.9 1.91 18.4 7.54 36.2 11.08 54.3 0.32 5.1 7.36 0.6 9.6 1.2 37.16-8.7 74.06-18.7 111.31-27 5.31 1.4 5.44 9.6 9.31 13.4 10.04-1.9 19.74-5.3 29.76-7.2 3.12 84 3.34 168.5 2.02 252.6-17.05 13.7-34.7 27.9-53.48 39.6 55.69-82 67.52-195.1 20.82-283.3-155.44 35.7-310.28 76.3-465.43 114-9.2 6.3-21.23-8.1-10.84-13.7 94.78-24.1 190.1-46.8 284.69-71.4-2.36-18.1-8.19-37.7-12.06-56.3-106.87 24.6-213.48 52.4-320.51 76.8 0.53-6.3 3.01-12.2 5.28-18 30.03-7.8 60.45-14.1 90.4-22.2-1.97-17.8-7.24-35.2-11.58-52.5-12.84 0.2-24.98 6.8-37.85 8.1 2.78-9.2 10.77-15.9 13.25-25.2-73.75 18.1-147.58 36.5-220.89 56.4-21.303 9.3-27.94 35.3-22.802 56.3 9.325 19.9 30.375 34.4 53 29.2 42.412-11.3 85.392-20.8 128.12-30.8-12.31 68.2-8.24 142.3 26.49 204 31.74 61.7 88.81 107.4 152.55 132.7 10.93 2.2 21.9 4.1 32.87 5.9-31.3-17-76.28-33.9-80.15-74.4 12.55-30.4 55.13-24.1 81.17-18.1 40.43 10 81.77 24.3 112.55 53.6-17.48-49.4-57.64-91-60.89-145.3 19.1-5.2 38.48-9.9 57.75-14.2 25.18 62.2 3.09 132.7 26.27 194.8 25.44-0.4 49.54-10.2 73.92-16.4 19.55-16.1 40.66-30.2 60.14-46.3 9.5-8.8 13.72 17.5 24.03 8.1 15.78-4.9-2.03-15.1-4.97-22.8 19.9-14.9 38.2-31.9 58.24-46.6 0.35 10.5 0.28 21.1 0.64 31.7 9.04-6.5 22.83-12.5 18.34-26.5-0.77-12.3 12.86 6.6 16.73-3.3 15.87-11.1-11.59-17.5-16.42-26.4-1.47-84.9-4.96-169.9-1.32-254.8 41.6-11.6 83.99-20.6 125.66-32.1 18.51-6.2 34.98-23.9 33.7-44.4 0.31-23.1-19.38-44.82-42.25-45.54zm-242.2 3.95c1 0.05 1.39 0.49 0.35 1.75-12.06 13.84-36.22 16.54-50.27 7.24 12.28-5.65 29.48-4.3 43.31-8.24-0.7 0.93 4.42-0.86 6.61-0.75zm-158.05 13.99c-0.78 0-1.65 0.2-2.6 0.5-5.45 2.6 4.89 27 14.18 17-3.81-5.6-4.02-17.8-11.58-17.5zm-147.7 36.5c-12.31-0.3-5.35 15.6-6.84 23 14.64 5.4 17.02-23 6.84-23zm-11.34 25.1c-11.55 3.8-24.73 4.3-35.42 9.9 3.24 17.2 6.86 34.9 12.01 51.4 16.13-2.1 33.23-7.8 49.74-11.3 0.28-14.5-7.1-29.4-9.46-44-5.33 11.1 0.82 36.1-17.96 39.6-8.49 3.6-20.92-5.9-15.13-14.6 10.45-2.7 7.89 6.9 6.05 12.3 21.5 2.8 17.72-40.4 10.17-43.3zm235.9 17c-2.35 0-5.6 1.3-6.82 0.7-9.51 1.8-18.79 4.8-28.24 6.9 4.91 19.1 7.91 38.8 13.76 57.5 11.83-3.6 23.98-6 35.92-9.2-2.21-18.2-7.58-35.9-11.99-53.7-0.13-1.7-1.22-2.2-2.63-2.2zm-327.59 5.6c-3.57 11.9-32.14 25.4-42.69 10.6 13.96-4.3 28.37-7.5 42.69-10.6zm-28.47 135.9c6.77 6.7 27.23-1.1 19.75 15.6-7.64 1.3-7.02 13.5-14.67 12.6-1.05-8.9-7.7-20.4-5.08-28.2zm316.29 272.8c-1.7 8.4-20.37 17.8-2.45 16.7 11.74 3.7 5.69-13.6 2.45-16.7z" transform="scale(.8)" fill="#d2a546"/>
</svg>
