<?xml version="1.0" encoding="UTF-8" standalone="no"?>
<!-- Created with Inkscape (http://www.inkscape.org/) -->

<svg
   xmlns:dc="http://purl.org/dc/elements/1.1/"
   xmlns:cc="http://creativecommons.org/ns#"
   xmlns:rdf="http://www.w3.org/1999/02/22-rdf-syntax-ns#"
   xmlns:svg="http://www.w3.org/2000/svg"
   xmlns="http://www.w3.org/2000/svg"
   xmlns:sodipodi="http://sodipodi.sourceforge.net/DTD/sodipodi-0.dtd"
   xmlns:inkscape="http://www.inkscape.org/namespaces/inkscape"
   width="218.75848"
   height="121.5268"
   id="svg2"
   version="1.1"
   inkscape:version="0.48.1 "
   sodipodi:docname="moneybag.svg">
  <defs
     id="defs4" />
  <sodipodi:namedview
     id="base"
     pagecolor="#ffffff"
     bordercolor="#666666"
     borderopacity="1.0"
     inkscape:pageopacity="0.0"
     inkscape:pageshadow="2"
     inkscape:zoom="0.7"
     inkscape:cx="120.27611"
     inkscape:cy="179.0755"
     inkscape:document-units="px"
     inkscape:current-layer="layer1"
     showgrid="false"
     fit-margin-top="0"
     fit-margin-left="0"
     fit-margin-right="0"
     fit-margin-bottom="0"
     inkscape:window-width="717"
     inkscape:window-height="554"
     inkscape:window-x="12"
     inkscape:window-y="74"
     inkscape:window-maximized="0" />
  <metadata
     id="metadata7">
    <rdf:RDF>
      <cc:Work
         rdf:about="">
        <dc:format>image/svg+xml</dc:format>
        <dc:type
           rdf:resource="http://purl.org/dc/dcmitype/StillImage" />
        <dc:title></dc:title>
      </cc:Work>
    </rdf:RDF>
  </metadata>
  <g
     inkscape:label="Layer 1"
     inkscape:groupmode="layer"
     id="layer1"
     transform="translate(1434.9441,203.39294)">
    <path
       style="fill:#000000"
       d="m -1346.9949,-83.411428 c -1.4496,-1.44961 -1.4594,-1.84642 -0.097,-3.92529 0.9846,-1.50263 1.1383,-2.43835 0.4388,-2.6715 -0.6466,-0.21554 -1.1354,-3.93909 -1.2241,-9.3247 -0.1213,-7.372052 -0.5536,-9.652912 -2.4316,-12.830732 -2.1752,-3.68062 -2.199,-3.9311 -0.5,-5.2543 1.675,-1.30457 1.6008,-1.54295 -1.216,-3.90322 -2.4692,-2.069 -12.6967,-7.47762 -14.1399,-7.47762 -0.219,0 -0.098,1.19502 0.2683,2.65559 0.867,3.45436 -1.8823,5.81406 -4.8953,4.20156 -1.8082,-0.96769 -1.9457,-0.80372 -1.5001,1.78875 0.2698,1.56975 1.0841,4.94654 1.8094,7.50396 1.1666,4.11295 1.1225,4.9495 -0.3814,7.24479 -0.9352,1.4272 -3.2115,3.22635 -5.0586,3.9981 -1.847,0.77175 -3.6647,1.899102 -4.0393,2.505222 -0.8684,1.40497 -4.5631,1.44546 -4.5631,0.05 0,-0.57861 1.35,-1.522632 3,-2.097822 1.65,-0.5752 3,-1.46591 3,-1.97937 0,-1.98283 -3.0602,-1.96414 -5.8689,0.0358 -3.252,2.31562 -4.702,2.59663 -5.6323,1.0915 -0.3405,-0.55103 0.5329,-1.43989 1.941,-1.97525 2.9414,-1.11833 3.279,-2.52123 0.9238,-3.83926 -2.3008,-1.2876 -2.2989,-10.62289 0,-14.98984 1.0751,-2.03943 1.6261,-4.91308 1.4381,-7.5 -0.2664,-3.66581 -0.6195,-4.21697 -2.8048,-4.37837 -1.4439,-0.10665 -1.7608,0.0299 -0.75,0.32332 0.9625,0.27938 1.75,1.40627 1.75,2.5042 0,1.49817 -0.5614,1.9165 -2.25,1.67667 -3.317,-0.47109 -3.2321,-5.99753 0.1042,-6.78514 1.9173,-0.45261 0.8838,-1.15698 -5.5685,-3.79508 -9.2917,-3.79907 -9.2428,-3.79136 -8.606,-1.3563 0.3121,1.19376 -0.3069,2.4429 -1.6913,3.41255 l -2.1837,1.52952 2.1657,1.15907 c 1.9413,1.03894 2.0238,1.38485 0.7958,3.33745 -2.6648,4.23722 -4.0308,10.4737 -3.5539,16.22521 0.4137,4.98846 0.233,5.78546 -1.4088,6.21482 -1.7447,0.45623 -1.7641,0.62446 -0.2631,2.28297 2.0412,2.25549 1.5371,6.32484 -0.8396,6.77796 -2.5358,0.48344 -6.7008,-2.49758 -6.7008,-4.79594 0,-1.05999 0.7875,-2.39243 1.75,-2.96097 1.6133,-0.95293 1.5851,-1.08029 -0.3607,-1.6299 -1.9467,-0.54985 -2.0731,-1.12314 -1.6258,-7.3745 0.5002,-6.99032 -0.8153,-13.18268 -3.4404,-16.19583 -1.2694,-1.45698 -1.0656,-1.76222 1.8764,-2.80957 l 3.3005,-1.175 -3.25,-1.39216 c -3.9778,-1.70393 -4.3009,-4.75403 -0.75,-7.08067 1.375,-0.90093 2.5,-2.17566 2.5,-2.83273 0,-0.65707 -4.0207,-3.03119 -8.9349,-5.27582 -7.7983,-3.56197 -8.8648,-4.34945 -8.3834,-6.19031 0.3034,-1.16005 1.1383,-2.10918 1.8555,-2.10918 0.7171,0 1.6132,-1.4625 1.9913,-3.25 1.0683,-5.05087 3.9648,-7.49442 9.8204,-8.2849 7.4952,-1.01181 8.6511,-1.8707 8.6511,-6.42833 l 0,-3.89286 5.75,-0.6973 c 6.7502,-0.81861 9.25,-1.92359 9.25,-4.08878 0,-1.10498 0.5198,-1.35765 1.75,-0.85076 0.9625,0.39657 3.8815,1.4935 6.4866,2.4376 l 4.7366,1.71656 -3.9866,8.24377 c -2.1926,4.53408 -3.9862,8.7728 -3.9857,9.41939 5e-4,0.64659 3.938,3.02737 8.75,5.29062 15.8491,7.45442 19.259,8.77832 20.1288,7.8152 0.4621,-0.51162 2.1038,-3.30029 3.6483,-6.19705 2.7301,-5.12037 2.7552,-5.30563 0.9011,-6.66133 -1.0489,-0.76696 -2.284,-1.16152 -2.7447,-0.8768 -0.4607,0.28472 -1.7491,-0.46069 -2.8631,-1.65648 -1.1141,-1.19578 -2.6546,-1.93276 -3.4234,-1.63774 -0.7689,0.29503 -1.3979,0.10054 -1.3979,-0.43219 0,-0.53274 0.8788,-0.96862 1.9529,-0.96862 2.4346,0 7.0471,2.0456 7.0471,3.12533 0,0.44237 0.8865,1.27873 1.9699,1.85858 1.7187,0.91979 2.2365,0.53186 4.0592,-3.04102 1.756,-3.44196 1.8804,-4.36233 0.7801,-5.76909 -1.1453,-1.46421 -1.1097,-1.51825 0.2838,-0.43162 1.3364,1.04207 1.77,0.85401 2.6909,-1.16732 1.0519,-2.3085 0.8274,-2.51777 -5.3535,-4.99218 -3.5483,-1.42047 -7.7416,-2.58268 -9.3185,-2.58268 -1.5768,0 -3.395,-0.63621 -4.0404,-1.4138 -0.6453,-0.77759 -3.2436,-2.38695 -5.774,-3.57636 l -4.6006,-2.16256 -2.3003,2.82636 -2.3004,2.82636 1.1197,-3.75 c 0.6158,-2.0625 1.6067,-3.73023 2.2019,-3.70607 0.5952,0.0242 4.2322,1.57372 8.0822,3.44347 l 7,3.39954 28,-2.93955 c 15.4,-1.61675 34.75,-3.64103 43,-4.4984 8.25,-0.85736 26.25,-2.91954 40,-4.5826 28.1049,-3.39931 32.4903,-3.33282 36.3677,0.55138 2.552,2.55647 2.6247,2.96286 2.3846,13.3216 -0.1606,6.9236 -0.6886,11.12554 -1.5002,11.93708 -0.6888,0.68881 -3.9174,2.06374 -7.1747,3.05541 -5.7653,1.75521 -8.5985,4.23597 -4.9107,4.29994 2.6895,0.0467 5.5601,2.55909 5.1712,4.52608 -0.1859,0.9399 -1.8431,2.51523 -3.6829,3.50073 l -3.3449,1.79182 2.9849,1.54357 2.985,1.54358 -2.14,4.28121 c -1.6016,3.20411 -2.1697,6.28284 -2.2579,12.23718 -0.066,4.44749 -0.5708,8.10694 -1.1449,8.2983 -0.689,0.22965 -0.6547,1.32876 0.1041,3.33902 0.9212,2.44057 0.8553,3.17499 -0.3551,3.95743 -3.804,2.45902 -8.5381,-1.33615 -6.2456,-5.00693 0.9879,-1.58195 0.959,-2.11658 -0.149,-2.75345 -0.9299,-0.53454 -1.4977,-3.37961 -1.7543,-8.79034 -0.2381,-5.0232 -1.0414,-9.30235 -2.1587,-11.5 l -1.7795,-3.5 2.6256,-2.09753 2.6257,-2.09753 -3.0752,-1.27379 c -3.4272,-1.41959 -4.2996,-5.34734 -1.4321,-6.4477 0.9037,-0.34679 1.4386,-0.83509 1.1886,-1.08511 -0.2501,-0.25003 -6.6765,1.55139 -14.2809,4.00315 -7.6045,2.45177 -18,5.64218 -23.1011,7.08982 -9.8081,2.78341 -10.4042,3.33174 -10.4361,9.59967 -0.01,1.48004 -0.3674,2.90964 -0.7998,3.17688 -0.4324,0.26724 -10.2199,3.48515 -21.75,7.15092 -11.5301,3.66576 -21.0889,6.78626 -21.2418,6.93444 -0.1529,0.14817 0.172,1.45291 0.722,2.89941 1.2789,3.36375 0.4162,5.55993 -2.6406,6.7221 -2.5401,0.96576 -2.2972,2.92527 0.3626,2.92527 1.0875,0 1.3294,0.52052 0.8131,1.75 -3.6652,8.72802 -4.5681,12.2396 -4.6574,18.112552 -0.055,3.6506 -0.5968,6.95621 -1.2029,7.34581 -0.7865,0.50549 -0.7465,1.06396 0.1396,1.95 1.6244,1.62441 1.5665,2.37389 -0.3298,4.27021 -2.0207,2.02066 -4.8534,2.00374 -6.8984,-0.0412 z m 5.2931,-3.72023 c 0.1871,-0.96457 -0.3148,-1.66713 -1.191,-1.66713 -1.8577,0 -2.9789,1.63015 -2.0997,3.05279 0.9046,1.46356 2.9012,0.62281 3.2907,-1.38566 z m -68.8233,-18.698512 c 0,-1.34973 -2.6092,-2.32817 -3.9684,-1.48813 -0.5853,0.36174 -0.8053,1.07661 -0.4889,1.58861 0.7832,1.26716 4.4573,1.18433 4.4573,-0.10048 z m 36.8,-0.16862 c 1.6249,-1.62488 1.5231,-4.10476 -0.4911,-11.96451 -1.9595,-7.64674 -1.0503,-11.43773 2.8846,-12.02697 1.7022,-0.25491 0.467,-1.06104 -4.7147,-3.07696 -3.8617,-1.50236 -7.2867,-2.73156 -7.6111,-2.73156 -0.3244,0 -0.1238,1.74613 0.4459,3.88029 0.8722,3.26784 0.6924,4.67818 -1.139,8.93539 -1.196,2.78029 -2.1746,6.46374 -2.1746,8.18544 0,4.02102 1.7586,7.30548 3.5447,6.62011 0.7652,-0.29363 1.7239,0.004 2.1306,0.66236 0.4825,0.78073 0.98,0.33137 1.4323,-1.29367 l 0.693,-2.48992 0.1,2.66667 c 0.086,2.31013 1.0445,3.4522 3.1497,3.75438 0.3025,0.0434 1.09,-0.46105 1.75,-1.12105 z m -5.568,-8.8 c 0,-1.925 0.2058,-2.7125 0.4573,-1.75 0.2516,0.9625 0.2516,2.5375 0,3.5 -0.2515,0.9625 -0.4573,0.175 -0.4573,-1.75 z m -2.1531,-3.41667 c -0.043,-1.05416 0.193,-1.64479 0.5253,-1.3125 0.3323,0.3323 0.3678,1.1948 0.079,1.91667 -0.3192,0.79773 -0.5562,0.56078 -0.6042,-0.60417 z m 1.5418,-6.33333 c -1.0431,-3.55083 -1.8259,-9.25 -1.2705,-9.25 0.315,0 1.065,1.82815 1.6666,4.06255 0.6017,2.2344 1.3422,4.7094 1.6456,5.5 0.3034,0.7906 0.084,1.43745 -0.488,1.43745 -0.5718,0 -1.271,-0.7875 -1.5537,-1.75 z m 1.8793,-7.25 c -0.3399,-0.55 -0.1415,-1 0.441,-1 0.5824,0 1.059,0.45 1.059,1 0,0.55 -0.1984,1 -0.441,1 -0.2425,0 -0.7191,-0.45 -1.059,-1 z m 37.6875,9.31689 c -0.7219,-0.28887 -1.5844,-0.25335 -1.9167,0.0789 -0.3323,0.3323 0.2584,0.56864 1.3125,0.52522 1.165,-0.048 1.4019,-0.28494 0.6042,-0.60416 z m -4.6875,-2.31689 c 1.3187,-0.56668 1.4891,-0.87815 0.5,-0.9144 -0.825,-0.0302 -2.175,0.38124 -3,0.9144 -1.828,1.18132 -0.2491,1.18132 2.5,0 z m -22.8283,-1.5 c -0.5043,-1.53597 -4.353,-1.77303 -4.9171,-0.30287 -0.3393,0.88416 0.4232,1.30287 2.3727,1.30287 1.58,0 2.725,-0.45 2.5444,-1 z m 134.6412,-1.58713 c -1.3279,-1.32782 -2.7993,0.49104 -1.7591,2.17426 0.4839,0.78285 0.9762,0.78285 1.7591,0 0.7828,-0.78284 0.7828,-1.39142 0,-2.17426 z m -104.8129,1.08713 c 1.2606,-0.54172 1.4455,-0.85943 0.5,-0.85943 -0.825,0 -2.4,0.38674 -3.5,0.85943 -1.2606,0.54172 -1.4455,0.85943 -0.5,0.85943 0.825,0 2.4,-0.38674 3.5,-0.85943 z m -16.845,-5.99801 c -0.6178,-2.3146 -1.8225,-4.23776 -2.8611,-4.56739 -2.0795,-0.66002 -2.349,-2.03895 -0.5439,-2.7836 0.6875,-0.28362 -0.2825,-0.25087 -2.1555,0.0728 -2.4978,0.4316 -3.2084,0.26962 -2.6662,-0.60775 0.5342,-0.86435 0.023,-1.01628 -1.8445,-0.54769 -3.1816,0.79854 -3.404,-0.83119 -0.3338,-2.44644 1.6856,-0.88682 1.7483,-1.01831 0.25,-0.52422 -1.1,0.36274 -3.125,0.85135 -4.5,1.0858 l -2.5,0.42628 2.5,-1.62394 c 1.6654,-1.08178 1.8323,-1.37355 0.5,-0.87393 -2.8143,1.05537 -7.589,0.85647 -8.3556,-0.34806 -0.3544,-0.5569 -2.1069,-1.32984 -3.8944,-1.71764 -3.8146,-0.82758 -4.1155,-1.77712 -1,-3.15564 1.2375,-0.54755 1.575,-0.8279 0.75,-0.62301 -0.825,0.2049 -2.85,0.60391 -4.5,0.8867 -2.4,0.41133 -2.7,0.28518 -1.5,-0.63071 1.1833,-0.90311 0.8137,-1.00969 -1.75,-0.50473 -1.9438,0.38286 -3.25,0.23425 -3.25,-0.36977 0,-0.55545 -1.0125,-1.18816 -2.25,-1.40602 -2.2474,-0.39565 -2.2471,-0.39747 0.25,-1.55326 2.345,-1.0854 2.283,-1.12572 -1,-0.65033 -1.925,0.27875 -4.85,0.10082 -6.5,-0.39539 l -3,-0.90222 2.5,-1.14389 2.5,-1.1439 -2.75,0.54205 c -1.5125,0.29813 -3.946,0.24187 -5.4078,-0.12501 -2.5537,-0.64095 -2.5831,-0.72408 -0.75,-2.12248 1.7983,-1.37189 1.7643,-1.41417 -0.5922,-0.7368 -3.349,0.96266 -3.0979,0.97996 -6.5,-0.44787 -1.65,-0.69249 -3.9,-1.60448 -5,-2.02663 -1.5991,-0.61369 -1.039,-0.97262 2.7938,-1.79052 4.0324,-0.86048 5.7002,-0.69969 10.5,1.01224 3.1384,1.11937 5.8562,2.41902 6.0395,2.88812 0.1834,0.46909 1.0834,0.86817 2,0.88683 2.5568,0.052 9.2953,3.50411 8.4636,4.3358 -0.4048,0.40479 0.068,0.4274 1.051,0.0502 0.9829,-0.37715 2.7692,-0.2005 3.9696,0.39255 4.8859,2.41386 11.6376,5.18747 12.6276,5.18747 0.5802,0 1.0549,0.40842 1.0549,0.90759 0,0.49917 2.25,1.48424 5,2.18905 2.75,0.7048 5,1.67295 5,2.15143 0,0.47848 0.4189,0.61107 0.9309,0.29464 0.512,-0.31644 1.2136,-0.11799 1.559,0.44098 0.3455,0.55897 1.4641,1.01631 2.4858,1.01631 1.0217,0 2.0342,0.52967 2.25,1.17705 0.5603,1.68106 2.7743,0.0444 2.7743,-2.05085 0,-1.80454 -2.9334,-3.53243 -13,-7.6574 -3.025,-1.23956 -13.15,-5.70802 -22.5,-9.92992 -18.2033,-8.21952 -17.1045,-8.01913 -29.8234,-5.43907 -6.1874,1.25513 -6.8746,1.64013 -7.3726,4.13044 -0.4718,2.35885 -0.92,2.66633 -3.1767,2.17955 -5.2909,-1.14129 19.9223,10.49658 47.8727,22.09698 3.575,1.48375 9.2,3.82852 12.5,5.2106 7.4258,3.11 12.8064,5.18093 13.6111,5.23873 0.3361,0.0241 0.1308,-1.75522 -0.4561,-3.95412 z m -16.655,-6.59787 c -16.8181,-6.84619 -17.7497,-7.26269 -16.4202,-7.34073 1.1269,-0.0661 27.7289,10.42061 30.3931,11.98127 3.697,2.16559 -1.4631,0.45189 -13.9729,-4.64054 z m -24.5,-10.3494 c -2.2,-1.04105 -3.55,-1.89588 -3,-1.89961 1.3639,-0.009 9.2551,3.68433 8,3.7445 -0.55,0.0264 -2.8,-0.80383 -5,-1.84489 z m -12,-5.05472 c -3.3,-1.56575 -5.55,-2.85912 -5,-2.87416 0.55,-0.015 3.7,1.26187 7,2.83758 3.3,1.57572 5.55,2.86909 5,2.87417 -0.55,0.005 -3.7,-1.27184 -7,-2.83759 z m -13.5,-6 c -0.825,-0.53316 -1.05,-0.96937 -0.5,-0.96937 0.55,0 1.675,0.43621 2.5,0.96937 0.825,0.53316 1.05,0.96937 0.5,0.96937 -0.55,0 -1.675,-0.43621 -2.5,-0.96937 z m 101,21.88599 c 15.125,-5.01487 27.95,-9.58198 28.5,-10.14914 0.6789,-0.70004 0.4657,-0.84407 -0.6638,-0.44847 -9.2683,3.24603 -55.0637,17.71162 -56.0718,17.71162 -1.2042,0 -0.8639,-5.24514 0.5174,-7.97504 0.7898,-1.5609 3.0928,-3.15781 6.2353,-4.32365 6.8238,-2.53158 8.4829,-4.25585 8.4829,-8.81616 0,-3.539 0.262,-3.87996 3.75,-4.8796 2.0625,-0.59111 11.4,-3.2087 20.75,-5.81686 14.7439,-4.11279 17.0406,-5.02332 17.3059,-6.86098 0.6286,-4.35505 0.3045,-4.23175 40.4474,-15.38799 6.4643,-1.79652 11.5707,-3.44908 11.3474,-3.67235 -0.6814,-0.68139 -45.8723,11.57929 -49.414,13.40645 -2.1737,1.12139 -3.5033,2.65915 -3.8656,4.47085 -0.4771,2.38545 -1.2516,2.91231 -5.6867,3.86859 -2.8239,0.60888 -12.1094,3.03958 -20.6344,5.40155 l -15.5,4.29449 0.315,2.81839 c 0.6101,5.45981 -0.4951,7.07214 -6.6894,9.75852 -3.2478,1.40857 -6.6298,3.59553 -7.5154,4.85992 -1.9363,2.76452 -2.2047,10.85294 -0.3602,10.85583 0.6875,0.001 13.625,-4.1011 28.75,-9.11597 z m -90.0833,-2.24445 c -0.2292,-0.19715 -2.2167,-0.6344 -4.4167,-0.97166 -2.724,-0.41758 -3.5215,-0.30812 -2.5,0.34315 1.3663,0.87109 7.8874,1.46367 6.9167,0.62851 z m 4.0833,-4.12812 c 0,-0.66632 -6.9739,-3.53119 -8.3721,-3.43926 -0.6204,0.0408 0.6721,0.90742 2.8721,1.92584 4.2286,1.95752 5.5,2.30735 5.5,1.51342 z m 64.4137,-2.53636 c 0.7855,-0.79216 0.5324,-0.92155 -0.9137,-0.46724 -1.9007,0.59712 -1.8969,0.56281 0.076,-0.69075 1.3854,-0.88043 2.0505,-2.31669 2,-4.31907 -0.077,-3.04617 -0.4645,-3.5 -2.9901,-3.5 -1.3502,0 -6.5855,8.15386 -6.5855,10.2568 0,1.27438 6.9256,0.22098 8.4137,-1.27974 z m -8.5368,-5.60629 c 1.401,-3.07485 1.5167,-2.89052 -2.999,-4.77731 -3.4664,-1.44837 -3.5452,-1.42661 -5.2428,1.44713 l -1.7235,2.91761 3.2942,1.43933 c 4.6582,2.03529 5.3226,1.93304 6.6711,-1.02676 z m 113.1231,-0.87077 c 0.6847,-0.825 1.0199,-1.5 0.7449,-1.5 -0.275,0 -1.0602,0.675 -1.7449,1.5 -0.6847,0.825 -1.0199,1.5 -0.7449,1.5 0.275,0 1.0602,-0.675 1.7449,-1.5 z m -159,-2.5 c 1.828,-1.18132 0.2491,-1.18132 -2.5,0 -1.3187,0.56668 -1.4891,0.87816 -0.5,0.9144 0.825,0.0302 2.175,-0.38124 3,-0.9144 z m 49.9648,-4.93426 c 1.627,-3.03999 1.2871,-3.6522 -2.7148,-4.89081 -3.2219,-0.99717 -3.926,-0.92347 -5,0.52335 -1.9264,2.5952 -1.504,4.04227 1.5,5.13944 4.0734,1.48771 5.0718,1.36369 6.2148,-0.77198 z m -66.4648,-1.06574 c -1.1812,-0.50758 -1.42,-0.8882 -0.5833,-0.92971 0.7791,-0.0387 1.2095,-0.27744 0.9563,-0.53063 -0.2532,-0.25318 -1.5416,-0.17758 -2.8631,0.16801 -2.235,0.58447 -2.2669,0.68152 -0.4563,1.39005 2.7536,1.0776 5.4717,0.98746 2.9464,-0.0977 z m 178.7383,0.29274 c -1.2439,-0.23919 -3.0439,-0.23011 -4,0.0202 -0.9561,0.25029 0.062,0.446 2.2617,0.4349 2.2,-0.0111 2.9822,-0.21589 1.7383,-0.45508 z m -110.7383,-6.19647 c -3.3,-1.54288 -6.4215,-2.56725 -6.9367,-2.27637 -0.5151,0.29088 1.7349,1.55219 5,2.80289 8.17,3.12947 9.173,2.85677 1.9367,-0.52652 z m -60.7715,-3.66748 c 0.6757,-0.19224 2.3226,-2.61737 3.6597,-5.38916 l 2.4312,-5.03963 -2.9097,0 c -2.2646,0 -2.9097,0.4535 -2.9097,2.04546 0,3.21222 -4.1989,6.64711 -9.0895,7.43563 -4.5107,0.72726 -8.9105,2.90202 -8.9105,4.40433 0,0.66217 10.333,-1.35251 17.7285,-3.45663 z m 151.459,3.8881 c -0.7219,-0.28887 -1.5844,-0.25335 -1.9167,0.0789 -0.3323,0.33229 0.2584,0.56864 1.3125,0.52522 1.165,-0.048 1.4019,-0.28494 0.6042,-0.60417 z m -138.1878,-3.31641 c 0.9343,-1.74565 0.6093,-2.2193 -2.5597,-3.73047 -3.4955,-1.66691 -3.6818,-1.65986 -5.0349,0.19066 -2.6662,3.64627 -1.4957,5.11927 4.3097,5.42333 1.2769,0.0669 2.668,-0.73079 3.2849,-1.88352 z m 152.1878,-0.68359 c -0.7219,-0.28887 -1.5844,-0.25335 -1.9167,0.0789 -0.3323,0.33229 0.2584,0.56864 1.3125,0.52522 1.165,-0.048 1.4019,-0.28494 0.6042,-0.60417 z m 4,-1 c -0.7219,-0.28887 -1.5844,-0.25335 -1.9167,0.0789 -0.3323,0.33229 0.2584,0.56864 1.3125,0.52522 1.165,-0.048 1.4019,-0.28494 0.6042,-0.60417 z m -152.415,-6.52515 c 1.3867,-3.67384 0.86,-4.51525 -3.3544,-5.35813 -2.5759,-0.51517 -3.1957,-0.21718 -4.2188,2.0283 -1.5927,3.49563 -1.6611,3.3304 2.0507,4.95365 4.3932,1.92122 4.1583,1.99026 5.5225,-1.62382 z m 156.415,-11.47485 c -0.7219,-0.28887 -1.5844,-0.25335 -1.9167,0.0789 -0.3323,0.33229 0.2584,0.56864 1.3125,0.52522 1.165,-0.048 1.4019,-0.28494 0.6042,-0.60417 z m 11.2897,-3.41483 c 0.5374,-0.52602 -0.5876,-0.42737 -2.5,0.21922 -4.4778,1.51392 -5.347,2.36634 -1.4772,1.44863 1.65,-0.39129 3.4397,-1.14182 3.9772,-1.66785 z m -146.2272,33.06678 c -1.2375,-0.49742 -2.25,-1.14389 -2.25,-1.43662 0,-0.97061 1.5915,-0.55204 3.5589,0.93598 2.2123,1.67331 1.9029,1.79163 -1.3089,0.50064 z m -11.25,-0.98701 c 0,-1.81541 10.1044,-21.21076 10.7262,-20.58894 0.7794,0.77936 -8.7309,21.60711 -9.8661,21.60711 -0.4731,0 -0.8601,-0.45818 -0.8601,-1.01817 z m 8.75,-1.7103 c -2.0625,-0.21574 -3.75,-0.8151 -3.75,-1.33189 0,-1.32861 2.9781,-1.08842 6.5,0.52425 1.65,0.75552 2.55,1.33457 2,1.28679 -0.55,-0.0478 -2.6875,-0.2634 -4.75,-0.47915 z m -15.25,-4.80764 c -1.65,-0.75553 -2.2985,-1.39398 -1.4411,-1.41879 0.8573,-0.0248 2.4323,0.61559 3.5,1.4231 2.3704,1.79288 1.8637,1.79182 -2.0589,-0.004 z m 3.5,-0.96389 c -1.375,-0.78602 -3.5125,-1.44507 -4.75,-1.46456 -1.2375,-0.0195 -2.25,-0.43805 -2.25,-0.93013 0,-1.344 7.0335,0.49967 8.855,2.32111 1.9258,1.92578 1.4202,1.94584 -1.855,0.0736 z m 4,-7.08331 c -1.375,-0.76296 -3.7375,-1.39384 -5.25,-1.40195 -1.5125,-0.008 -2.75,-0.46474 -2.75,-1.01474 0,-0.55 0.845,-1 1.8779,-1 2.6705,0 9.1221,2.83848 9.1221,4.01342 0,0.54262 -0.1125,0.94246 -0.25,0.88853 -0.1375,-0.0539 -1.375,-0.72229 -2.75,-1.48526 z m 18.5,0.35442 c -1.65,-0.58905 -3.225,-1.40816 -3.5,-1.82024 -0.275,-0.41208 -1.625,-0.94043 -3,-1.17411 -2.0299,-0.34499 -2.188,-0.56553 -0.8409,-1.17294 1.0771,-0.48564 3.5328,0.32636 7,2.31467 5.4908,3.14871 5.5976,3.72927 0.3409,1.85262 z m -20.25,-7.51649 c -3.6752,-1.82909 -4.2227,-3.25462 -1.25,-3.25462 1.1,0 2,0.51289 2,1.13976 0,0.62686 0.7875,1.73755 1.75,2.46819 2.3021,1.74758 1.491,1.63294 -2.5,-0.35333 z m 5.75,0.24538 c -0.6944,-0.83674 -0.8027,-1.5 -0.2449,-1.5 0.55,0 1.5602,0.675 2.2449,1.5 0.6944,0.83674 0.8027,1.5 0.2449,1.5 -0.55,0 -1.5602,-0.675 -2.2449,-1.5 z"
       id="path3875"
       inkscape:connector-curvature="0" />
  </g>
</svg>
